<svg width="126" height="126" viewBox="0 0 126 126" fill="none" xmlns="http://www.w3.org/2000/svg">
<path d="M33.8049 6.14635H30.7317V9.21951H33.8049V6.14635Z" fill="black"/>
<path d="M36.8781 6.14635H33.8049V9.21951H36.8781V6.14635Z" fill="black"/>
<path d="M39.9512 6.14635H36.8781V9.21951H39.9512V6.14635Z" fill="black"/>
<path d="M43.0243 6.14635H39.9512V9.21951H43.0243V6.14635Z" fill="black"/>
<path d="M52.2439 6.14635H49.1708V9.21951H52.2439V6.14635Z" fill="black"/>
<path d="M55.3171 6.14635H52.2439V9.21951H55.3171V6.14635Z" fill="black"/>
<path d="M61.4634 6.14635H58.3903V9.21951H61.4634V6.14635Z" fill="black"/>
<path d="M64.5365 6.14635H61.4634V9.21951H64.5365V6.14635Z" fill="black"/>
<path d="M70.6829 6.14635H67.6097V9.21951H70.6829V6.14635Z" fill="black"/>
<path d="M79.9025 6.14635H76.8293V9.21951H79.9025V6.14635Z" fill="black"/>
<path d="M95.2684 6.14635H92.1952V9.21951H95.2684V6.14635Z" fill="black"/>
<path d="M33.8049 9.21951H30.7317V12.2927H33.8049V9.21951Z" fill="black"/>
<path d="M36.8781 9.21951H33.8049V12.2927H36.8781V9.21951Z" fill="black"/>
<path d="M46.0976 9.21951H43.0244V12.2927H46.0976V9.21951Z" fill="black"/>
<path d="M64.5365 9.21951H61.4634V12.2927H64.5365V9.21951Z" fill="black"/>
<path d="M67.6098 9.21951H64.5366V12.2927H67.6098V9.21951Z" fill="black"/>
<path d="M70.6829 9.21951H67.6097V12.2927H70.6829V9.21951Z" fill="black"/>
<path d="M73.7561 9.21951H70.683V12.2927H73.7561V9.21951Z" fill="black"/>
<path d="M76.8293 9.21951H73.7561V12.2927H76.8293V9.21951Z" fill="black"/>
<path d="M79.9025 9.21951H76.8293V12.2927H79.9025V9.21951Z" fill="black"/>
<path d="M82.9756 9.21951H79.9025V12.2927H82.9756V9.21951Z" fill="black"/>
<path d="M49.1707 12.2927H46.0975V15.3659H49.1707V12.2927Z" fill="black"/>
<path d="M64.5365 12.2927H61.4634V15.3659H64.5365V12.2927Z" fill="black"/>
<path d="M70.6829 12.2927H67.6097V15.3659H70.6829V12.2927Z" fill="black"/>
<path d="M86.0488 12.2927H82.9756V15.3659H86.0488V12.2927Z" fill="black"/>
<path d="M33.8049 15.3659H30.7317V18.439H33.8049V15.3659Z" fill="black"/>
<path d="M36.8781 15.3659H33.8049V18.439H36.8781V15.3659Z" fill="black"/>
<path d="M43.0243 15.3659H39.9512V18.439H43.0243V15.3659Z" fill="black"/>
<path d="M61.4634 15.3659H58.3903V18.439H61.4634V15.3659Z" fill="black"/>
<path d="M67.6098 15.3659H64.5366V18.439H67.6098V15.3659Z" fill="black"/>
<path d="M76.8293 15.3659H73.7561V18.439H76.8293V15.3659Z" fill="black"/>
<path d="M79.9025 15.3659H76.8293V18.439H79.9025V15.3659Z" fill="black"/>
<path d="M82.9756 15.3659H79.9025V18.439H82.9756V15.3659Z" fill="black"/>
<path d="M86.0488 15.3659H82.9756V18.439H86.0488V15.3659Z" fill="black"/>
<path d="M89.122 15.3659H86.0488V18.439H89.122V15.3659Z" fill="black"/>
<path d="M95.2684 15.3659H92.1952V18.439H95.2684V15.3659Z" fill="black"/>
<path d="M36.8781 18.439H33.8049V21.5122H36.8781V18.439Z" fill="black"/>
<path d="M43.0243 18.439H39.9512V21.5122H43.0243V18.439Z" fill="black"/>
<path d="M46.0976 18.439H43.0244V21.5122H46.0976V18.439Z" fill="black"/>
<path d="M55.3171 18.439H52.2439V21.5122H55.3171V18.439Z" fill="black"/>
<path d="M61.4634 18.439H58.3903V21.5122H61.4634V18.439Z" fill="black"/>
<path d="M67.6098 18.439H64.5366V21.5122H67.6098V18.439Z" fill="black"/>
<path d="M76.8293 18.439H73.7561V21.5122H76.8293V18.439Z" fill="black"/>
<path d="M86.0488 18.439H82.9756V21.5122H86.0488V18.439Z" fill="black"/>
<path d="M92.1951 18.439H89.1219V21.5122H92.1951V18.439Z" fill="black"/>
<path d="M95.2684 18.439H92.1952V21.5122H95.2684V18.439Z" fill="black"/>
<path d="M36.8781 21.5122H33.8049V24.5854H36.8781V21.5122Z" fill="black"/>
<path d="M39.9512 21.5122H36.8781V24.5854H39.9512V21.5122Z" fill="black"/>
<path d="M46.0976 21.5122H43.0244V24.5854H46.0976V21.5122Z" fill="black"/>
<path d="M67.6098 21.5122H64.5366V24.5854H67.6098V21.5122Z" fill="black"/>
<path d="M82.9756 21.5122H79.9025V24.5854H82.9756V21.5122Z" fill="black"/>
<path d="M86.0488 21.5122H82.9756V24.5854H86.0488V21.5122Z" fill="black"/>
<path d="M89.122 21.5122H86.0488V24.5854H89.122V21.5122Z" fill="black"/>
<path d="M33.8049 24.5854H30.7317V27.6585H33.8049V24.5854Z" fill="black"/>
<path d="M39.9512 24.5854H36.8781V27.6585H39.9512V24.5854Z" fill="black"/>
<path d="M46.0976 24.5854H43.0244V27.6585H46.0976V24.5854Z" fill="black"/>
<path d="M52.2439 24.5854H49.1708V27.6585H52.2439V24.5854Z" fill="black"/>
<path d="M58.3903 24.5854H55.3171V27.6585H58.3903V24.5854Z" fill="black"/>
<path d="M64.5365 24.5854H61.4634V27.6585H64.5365V24.5854Z" fill="black"/>
<path d="M70.6829 24.5854H67.6097V27.6585H70.6829V24.5854Z" fill="black"/>
<path d="M76.8293 24.5854H73.7561V27.6585H76.8293V24.5854Z" fill="black"/>
<path d="M82.9756 24.5854H79.9025V27.6585H82.9756V24.5854Z" fill="black"/>
<path d="M89.122 24.5854H86.0488V27.6585H89.122V24.5854Z" fill="black"/>
<path d="M95.2684 24.5854H92.1952V27.6585H95.2684V24.5854Z" fill="black"/>
<path d="M33.8049 27.6585H30.7317V30.7317H33.8049V27.6585Z" fill="black"/>
<path d="M52.2439 27.6585H49.1708V30.7317H52.2439V27.6585Z" fill="black"/>
<path d="M58.3903 27.6585H55.3171V30.7317H58.3903V27.6585Z" fill="black"/>
<path d="M61.4634 27.6585H58.3903V30.7317H61.4634V27.6585Z" fill="black"/>
<path d="M64.5365 27.6585H61.4634V30.7317H64.5365V27.6585Z" fill="black"/>
<path d="M70.6829 27.6585H67.6097V30.7317H70.6829V27.6585Z" fill="black"/>
<path d="M76.8293 27.6585H73.7561V30.7317H76.8293V27.6585Z" fill="black"/>
<path d="M79.9025 27.6585H76.8293V30.7317H79.9025V27.6585Z" fill="black"/>
<path d="M82.9756 27.6585H79.9025V30.7317H82.9756V27.6585Z" fill="black"/>
<path d="M89.122 27.6585H86.0488V30.7317H89.122V27.6585Z" fill="black"/>
<path d="M9.21953 30.7317H6.14636V33.8049H9.21953V30.7317Z" fill="black"/>
<path d="M15.3659 30.7317H12.2927V33.8049H15.3659V30.7317Z" fill="black"/>
<path d="M18.439 30.7317H15.3658V33.8049H18.439V30.7317Z" fill="black"/>
<path d="M24.5854 30.7317H21.5122V33.8049H24.5854V30.7317Z" fill="black"/>
<path d="M27.6586 30.7317H24.5854V33.8049H27.6586V30.7317Z" fill="black"/>
<path d="M30.7317 30.7317H27.6586V33.8049H30.7317V30.7317Z" fill="black"/>
<path d="M46.0976 30.7317H43.0244V33.8049H46.0976V30.7317Z" fill="black"/>
<path d="M49.1707 30.7317H46.0975V33.8049H49.1707V30.7317Z" fill="black"/>
<path d="M52.2439 30.7317H49.1708V33.8049H52.2439V30.7317Z" fill="black"/>
<path d="M58.3903 30.7317H55.3171V33.8049H58.3903V30.7317Z" fill="black"/>
<path d="M70.6829 30.7317H67.6097V33.8049H70.6829V30.7317Z" fill="black"/>
<path d="M73.7561 30.7317H70.683V33.8049H73.7561V30.7317Z" fill="black"/>
<path d="M79.9025 30.7317H76.8293V33.8049H79.9025V30.7317Z" fill="black"/>
<path d="M82.9756 30.7317H79.9025V33.8049H82.9756V30.7317Z" fill="black"/>
<path d="M89.122 30.7317H86.0488V33.8049H89.122V30.7317Z" fill="black"/>
<path d="M95.2684 30.7317H92.1952V33.8049H95.2684V30.7317Z" fill="black"/>
<path d="M101.415 30.7317H98.3416V33.8049H101.415V30.7317Z" fill="black"/>
<path d="M110.634 30.7317H107.561V33.8049H110.634V30.7317Z" fill="black"/>
<path d="M116.78 30.7317H113.707V33.8049H116.78V30.7317Z" fill="black"/>
<path d="M119.854 30.7317H116.781V33.8049H119.854V30.7317Z" fill="black"/>
<path d="M24.5854 33.8049H21.5122V36.878H24.5854V33.8049Z" fill="black"/>
<path d="M33.8049 33.8049H30.7317V36.878H33.8049V33.8049Z" fill="black"/>
<path d="M43.0243 33.8049H39.9512V36.878H43.0243V33.8049Z" fill="black"/>
<path d="M46.0976 33.8049H43.0244V36.878H46.0976V33.8049Z" fill="black"/>
<path d="M52.2439 33.8049H49.1708V36.878H52.2439V33.8049Z" fill="black"/>
<path d="M55.3171 33.8049H52.2439V36.878H55.3171V33.8049Z" fill="black"/>
<path d="M58.3903 33.8049H55.3171V36.878H58.3903V33.8049Z" fill="black"/>
<path d="M61.4634 33.8049H58.3903V36.878H61.4634V33.8049Z" fill="black"/>
<path d="M73.7561 33.8049H70.683V36.878H73.7561V33.8049Z" fill="black"/>
<path d="M76.8293 33.8049H73.7561V36.878H76.8293V33.8049Z" fill="black"/>
<path d="M79.9025 33.8049H76.8293V36.878H79.9025V33.8049Z" fill="black"/>
<path d="M95.2684 33.8049H92.1952V36.878H95.2684V33.8049Z" fill="black"/>
<path d="M104.488 33.8049H101.415V36.878H104.488V33.8049Z" fill="black"/>
<path d="M110.634 33.8049H107.561V36.878H110.634V33.8049Z" fill="black"/>
<path d="M116.78 33.8049H113.707V36.878H116.78V33.8049Z" fill="black"/>
<path d="M12.2927 36.8781H9.21948V39.9512H12.2927V36.8781Z" fill="black"/>
<path d="M24.5854 36.8781H21.5122V39.9512H24.5854V36.8781Z" fill="black"/>
<path d="M27.6586 36.8781H24.5854V39.9512H27.6586V36.8781Z" fill="black"/>
<path d="M30.7317 36.8781H27.6586V39.9512H30.7317V36.8781Z" fill="black"/>
<path d="M33.8049 36.8781H30.7317V39.9512H33.8049V36.8781Z" fill="black"/>
<path d="M36.8781 36.8781H33.8049V39.9512H36.8781V36.8781Z" fill="black"/>
<path d="M39.9512 36.8781H36.8781V39.9512H39.9512V36.8781Z" fill="black"/>
<path d="M49.1707 36.8781H46.0975V39.9512H49.1707V36.8781Z" fill="black"/>
<path d="M55.3171 36.8781H52.2439V39.9512H55.3171V36.8781Z" fill="black"/>
<path d="M64.5365 36.8781H61.4634V39.9512H64.5365V36.8781Z" fill="black"/>
<path d="M73.7561 36.8781H70.683V39.9512H73.7561V36.8781Z" fill="black"/>
<path d="M79.9025 36.8781H76.8293V39.9512H79.9025V36.8781Z" fill="black"/>
<path d="M82.9756 36.8781H79.9025V39.9512H82.9756V36.8781Z" fill="black"/>
<path d="M86.0488 36.8781H82.9756V39.9512H86.0488V36.8781Z" fill="black"/>
<path d="M89.122 36.8781H86.0488V39.9512H89.122V36.8781Z" fill="black"/>
<path d="M95.2684 36.8781H92.1952V39.9512H95.2684V36.8781Z" fill="black"/>
<path d="M98.3415 36.8781H95.2683V39.9512H98.3415V36.8781Z" fill="black"/>
<path d="M107.561 36.8781H104.488V39.9512H107.561V36.8781Z" fill="black"/>
<path d="M113.707 36.8781H110.634V39.9512H113.707V36.8781Z" fill="black"/>
<path d="M15.3659 39.9512H12.2927V43.0244H15.3659V39.9512Z" fill="black"/>
<path d="M21.5123 39.9512H18.4391V43.0244H21.5123V39.9512Z" fill="black"/>
<path d="M24.5854 39.9512H21.5122V43.0244H24.5854V39.9512Z" fill="black"/>
<path d="M30.7317 39.9512H27.6586V43.0244H30.7317V39.9512Z" fill="black"/>
<path d="M39.9512 39.9512H36.8781V43.0244H39.9512V39.9512Z" fill="black"/>
<path d="M46.0976 39.9512H43.0244V43.0244H46.0976V39.9512Z" fill="black"/>
<path d="M52.2439 39.9512H49.1708V43.0244H52.2439V39.9512Z" fill="black"/>
<path d="M55.3171 39.9512H52.2439V43.0244H55.3171V39.9512Z" fill="black"/>
<path d="M67.6098 39.9512H64.5366V43.0244H67.6098V39.9512Z" fill="black"/>
<path d="M79.9025 39.9512H76.8293V43.0244H79.9025V39.9512Z" fill="black"/>
<path d="M82.9756 39.9512H79.9025V43.0244H82.9756V39.9512Z" fill="black"/>
<path d="M86.0488 39.9512H82.9756V43.0244H86.0488V39.9512Z" fill="black"/>
<path d="M89.122 39.9512H86.0488V43.0244H89.122V39.9512Z" fill="black"/>
<path d="M98.3415 39.9512H95.2683V43.0244H98.3415V39.9512Z" fill="black"/>
<path d="M113.707 39.9512H110.634V43.0244H113.707V39.9512Z" fill="black"/>
<path d="M9.21953 43.0244H6.14636V46.0976H9.21953V43.0244Z" fill="black"/>
<path d="M12.2927 43.0244H9.21948V46.0976H12.2927V43.0244Z" fill="black"/>
<path d="M24.5854 43.0244H21.5122V46.0976H24.5854V43.0244Z" fill="black"/>
<path d="M27.6586 43.0244H24.5854V46.0976H27.6586V43.0244Z" fill="black"/>
<path d="M30.7317 43.0244H27.6586V46.0976H30.7317V43.0244Z" fill="black"/>
<path d="M43.0243 43.0244H39.9512V46.0976H43.0243V43.0244Z" fill="black"/>
<path d="M46.0976 43.0244H43.0244V46.0976H46.0976V43.0244Z" fill="black"/>
<path d="M49.1707 43.0244H46.0975V46.0976H49.1707V43.0244Z" fill="black"/>
<path d="M58.3903 43.0244H55.3171V46.0976H58.3903V43.0244Z" fill="black"/>
<path d="M61.4634 43.0244H58.3903V46.0976H61.4634V43.0244Z" fill="black"/>
<path d="M76.8293 43.0244H73.7561V46.0976H76.8293V43.0244Z" fill="black"/>
<path d="M79.9025 43.0244H76.8293V46.0976H79.9025V43.0244Z" fill="black"/>
<path d="M82.9756 43.0244H79.9025V46.0976H82.9756V43.0244Z" fill="black"/>
<path d="M86.0488 43.0244H82.9756V46.0976H86.0488V43.0244Z" fill="black"/>
<path d="M89.122 43.0244H86.0488V46.0976H89.122V43.0244Z" fill="black"/>
<path d="M92.1951 43.0244H89.1219V46.0976H92.1951V43.0244Z" fill="black"/>
<path d="M98.3415 43.0244H95.2683V46.0976H98.3415V43.0244Z" fill="black"/>
<path d="M101.415 43.0244H98.3416V46.0976H101.415V43.0244Z" fill="black"/>
<path d="M107.561 43.0244H104.488V46.0976H107.561V43.0244Z" fill="black"/>
<path d="M113.707 43.0244H110.634V46.0976H113.707V43.0244Z" fill="black"/>
<path d="M116.78 43.0244H113.707V46.0976H116.78V43.0244Z" fill="black"/>
<path d="M119.854 43.0244H116.781V46.0976H119.854V43.0244Z" fill="black"/>
<path d="M9.21953 46.0976H6.14636V49.1708H9.21953V46.0976Z" fill="black"/>
<path d="M15.3659 46.0976H12.2927V49.1708H15.3659V46.0976Z" fill="black"/>
<path d="M24.5854 46.0976H21.5122V49.1708H24.5854V46.0976Z" fill="black"/>
<path d="M33.8049 46.0976H30.7317V49.1708H33.8049V46.0976Z" fill="black"/>
<path d="M36.8781 46.0976H33.8049V49.1708H36.8781V46.0976Z" fill="black"/>
<path d="M39.9512 46.0976H36.8781V49.1708H39.9512V46.0976Z" fill="black"/>
<path d="M46.0976 46.0976H43.0244V49.1708H46.0976V46.0976Z" fill="black"/>
<path d="M55.3171 46.0976H52.2439V49.1708H55.3171V46.0976Z" fill="black"/>
<path d="M67.6098 46.0976H64.5366V49.1708H67.6098V46.0976Z" fill="black"/>
<path d="M82.9756 46.0976H79.9025V49.1708H82.9756V46.0976Z" fill="black"/>
<path d="M86.0488 46.0976H82.9756V49.1708H86.0488V46.0976Z" fill="black"/>
<path d="M89.122 46.0976H86.0488V49.1708H89.122V46.0976Z" fill="black"/>
<path d="M92.1951 46.0976H89.1219V49.1708H92.1951V46.0976Z" fill="black"/>
<path d="M95.2684 46.0976H92.1952V49.1708H95.2684V46.0976Z" fill="black"/>
<path d="M101.415 46.0976H98.3416V49.1708H101.415V46.0976Z" fill="black"/>
<path d="M104.488 46.0976H101.415V49.1708H104.488V46.0976Z" fill="black"/>
<path d="M107.561 46.0976H104.488V49.1708H107.561V46.0976Z" fill="black"/>
<path d="M110.634 46.0976H107.561V49.1708H110.634V46.0976Z" fill="black"/>
<path d="M119.854 46.0976H116.781V49.1708H119.854V46.0976Z" fill="black"/>
<path d="M9.21953 49.1708H6.14636V52.2439H9.21953V49.1708Z" fill="black"/>
<path d="M18.439 49.1708H15.3658V52.2439H18.439V49.1708Z" fill="black"/>
<path d="M27.6586 49.1708H24.5854V52.2439H27.6586V49.1708Z" fill="black"/>
<path d="M39.9512 49.1708H36.8781V52.2439H39.9512V49.1708Z" fill="black"/>
<path d="M43.0243 49.1708H39.9512V52.2439H43.0243V49.1708Z" fill="black"/>
<path d="M46.0976 49.1708H43.0244V52.2439H46.0976V49.1708Z" fill="black"/>
<path d="M58.3903 49.1708H55.3171V52.2439H58.3903V49.1708Z" fill="black"/>
<path d="M61.4634 49.1708H58.3903V52.2439H61.4634V49.1708Z" fill="black"/>
<path d="M64.5365 49.1708H61.4634V52.2439H64.5365V49.1708Z" fill="black"/>
<path d="M67.6098 49.1708H64.5366V52.2439H67.6098V49.1708Z" fill="black"/>
<path d="M82.9756 49.1708H79.9025V52.2439H82.9756V49.1708Z" fill="black"/>
<path d="M89.122 49.1708H86.0488V52.2439H89.122V49.1708Z" fill="black"/>
<path d="M95.2684 49.1708H92.1952V52.2439H95.2684V49.1708Z" fill="black"/>
<path d="M98.3415 49.1708H95.2683V52.2439H98.3415V49.1708Z" fill="black"/>
<path d="M107.561 49.1708H104.488V52.2439H107.561V49.1708Z" fill="black"/>
<path d="M113.707 49.1708H110.634V52.2439H113.707V49.1708Z" fill="black"/>
<path d="M12.2927 52.2439H9.21948V55.3171H12.2927V52.2439Z" fill="black"/>
<path d="M30.7317 52.2439H27.6586V55.3171H30.7317V52.2439Z" fill="black"/>
<path d="M46.0976 52.2439H43.0244V55.3171H46.0976V52.2439Z" fill="black"/>
<path d="M49.1707 52.2439H46.0975V55.3171H49.1707V52.2439Z" fill="black"/>
<path d="M52.2439 52.2439H49.1708V55.3171H52.2439V52.2439Z" fill="black"/>
<path d="M55.3171 52.2439H52.2439V55.3171H55.3171V52.2439Z" fill="black"/>
<path d="M58.3903 52.2439H55.3171V55.3171H58.3903V52.2439Z" fill="black"/>
<path d="M61.4634 52.2439H58.3903V55.3171H61.4634V52.2439Z" fill="black"/>
<path d="M64.5365 52.2439H61.4634V55.3171H64.5365V52.2439Z" fill="black"/>
<path d="M73.7561 52.2439H70.683V55.3171H73.7561V52.2439Z" fill="black"/>
<path d="M79.9025 52.2439H76.8293V55.3171H79.9025V52.2439Z" fill="black"/>
<path d="M89.122 52.2439H86.0488V55.3171H89.122V52.2439Z" fill="black"/>
<path d="M92.1951 52.2439H89.1219V55.3171H92.1951V52.2439Z" fill="black"/>
<path d="M98.3415 52.2439H95.2683V55.3171H98.3415V52.2439Z" fill="black"/>
<path d="M101.415 52.2439H98.3416V55.3171H101.415V52.2439Z" fill="black"/>
<path d="M104.488 52.2439H101.415V55.3171H104.488V52.2439Z" fill="black"/>
<path d="M107.561 52.2439H104.488V55.3171H107.561V52.2439Z" fill="black"/>
<path d="M116.78 52.2439H113.707V55.3171H116.78V52.2439Z" fill="black"/>
<path d="M18.439 55.3171H15.3658V58.3902H18.439V55.3171Z" fill="black"/>
<path d="M21.5123 55.3171H18.4391V58.3902H21.5123V55.3171Z" fill="black"/>
<path d="M27.6586 55.3171H24.5854V58.3902H27.6586V55.3171Z" fill="black"/>
<path d="M33.8049 55.3171H30.7317V58.3902H33.8049V55.3171Z" fill="black"/>
<path d="M46.0976 55.3171H43.0244V58.3902H46.0976V55.3171Z" fill="black"/>
<path d="M49.1707 55.3171H46.0975V58.3902H49.1707V55.3171Z" fill="black"/>
<path d="M58.3903 55.3171H55.3171V58.3902H58.3903V55.3171Z" fill="black"/>
<path d="M61.4634 55.3171H58.3903V58.3902H61.4634V55.3171Z" fill="black"/>
<path d="M64.5365 55.3171H61.4634V58.3902H64.5365V55.3171Z" fill="black"/>
<path d="M70.6829 55.3171H67.6097V58.3902H70.6829V55.3171Z" fill="black"/>
<path d="M86.0488 55.3171H82.9756V58.3902H86.0488V55.3171Z" fill="black"/>
<path d="M89.122 55.3171H86.0488V58.3902H89.122V55.3171Z" fill="black"/>
<path d="M92.1951 55.3171H89.1219V58.3902H92.1951V55.3171Z" fill="black"/>
<path d="M104.488 55.3171H101.415V58.3902H104.488V55.3171Z" fill="black"/>
<path d="M110.634 55.3171H107.561V58.3902H110.634V55.3171Z" fill="black"/>
<path d="M113.707 55.3171H110.634V58.3902H113.707V55.3171Z" fill="black"/>
<path d="M116.78 55.3171H113.707V58.3902H116.78V55.3171Z" fill="black"/>
<path d="M9.21953 58.3902H6.14636V61.4634H9.21953V58.3902Z" fill="black"/>
<path d="M12.2927 58.3902H9.21948V61.4634H12.2927V58.3902Z" fill="black"/>
<path d="M21.5123 58.3902H18.4391V61.4634H21.5123V58.3902Z" fill="black"/>
<path d="M24.5854 58.3902H21.5122V61.4634H24.5854V58.3902Z" fill="black"/>
<path d="M36.8781 58.3902H33.8049V61.4634H36.8781V58.3902Z" fill="black"/>
<path d="M39.9512 58.3902H36.8781V61.4634H39.9512V58.3902Z" fill="black"/>
<path d="M58.3903 58.3902H55.3171V61.4634H58.3903V58.3902Z" fill="black"/>
<path d="M67.6098 58.3902H64.5366V61.4634H67.6098V58.3902Z" fill="black"/>
<path d="M70.6829 58.3902H67.6097V61.4634H70.6829V58.3902Z" fill="black"/>
<path d="M76.8293 58.3902H73.7561V61.4634H76.8293V58.3902Z" fill="black"/>
<path d="M79.9025 58.3902H76.8293V61.4634H79.9025V58.3902Z" fill="black"/>
<path d="M82.9756 58.3902H79.9025V61.4634H82.9756V58.3902Z" fill="black"/>
<path d="M86.0488 58.3902H82.9756V61.4634H86.0488V58.3902Z" fill="black"/>
<path d="M92.1951 58.3902H89.1219V61.4634H92.1951V58.3902Z" fill="black"/>
<path d="M98.3415 58.3902H95.2683V61.4634H98.3415V58.3902Z" fill="black"/>
<path d="M101.415 58.3902H98.3416V61.4634H101.415V58.3902Z" fill="black"/>
<path d="M113.707 58.3902H110.634V61.4634H113.707V58.3902Z" fill="black"/>
<path d="M116.78 58.3902H113.707V61.4634H116.78V58.3902Z" fill="black"/>
<path d="M119.854 58.3902H116.781V61.4634H119.854V58.3902Z" fill="black"/>
<path d="M18.439 61.4634H15.3658V64.5366H18.439V61.4634Z" fill="black"/>
<path d="M21.5123 61.4634H18.4391V64.5366H21.5123V61.4634Z" fill="black"/>
<path d="M24.5854 61.4634H21.5122V64.5366H24.5854V61.4634Z" fill="black"/>
<path d="M27.6586 61.4634H24.5854V64.5366H27.6586V61.4634Z" fill="black"/>
<path d="M39.9512 61.4634H36.8781V64.5366H39.9512V61.4634Z" fill="black"/>
<path d="M43.0243 61.4634H39.9512V64.5366H43.0243V61.4634Z" fill="black"/>
<path d="M46.0976 61.4634H43.0244V64.5366H46.0976V61.4634Z" fill="black"/>
<path d="M49.1707 61.4634H46.0975V64.5366H49.1707V61.4634Z" fill="black"/>
<path d="M55.3171 61.4634H52.2439V64.5366H55.3171V61.4634Z" fill="black"/>
<path d="M58.3903 61.4634H55.3171V64.5366H58.3903V61.4634Z" fill="black"/>
<path d="M67.6098 61.4634H64.5366V64.5366H67.6098V61.4634Z" fill="black"/>
<path d="M73.7561 61.4634H70.683V64.5366H73.7561V61.4634Z" fill="black"/>
<path d="M76.8293 61.4634H73.7561V64.5366H76.8293V61.4634Z" fill="black"/>
<path d="M82.9756 61.4634H79.9025V64.5366H82.9756V61.4634Z" fill="black"/>
<path d="M92.1951 61.4634H89.1219V64.5366H92.1951V61.4634Z" fill="black"/>
<path d="M101.415 61.4634H98.3416V64.5366H101.415V61.4634Z" fill="black"/>
<path d="M107.561 61.4634H104.488V64.5366H107.561V61.4634Z" fill="black"/>
<path d="M110.634 61.4634H107.561V64.5366H110.634V61.4634Z" fill="black"/>
<path d="M113.707 61.4634H110.634V64.5366H113.707V61.4634Z" fill="black"/>
<path d="M116.78 61.4634H113.707V64.5366H116.78V61.4634Z" fill="black"/>
<path d="M119.854 61.4634H116.781V64.5366H119.854V61.4634Z" fill="black"/>
<path d="M12.2927 64.5366H9.21948V67.6098H12.2927V64.5366Z" fill="black"/>
<path d="M15.3659 64.5366H12.2927V67.6098H15.3659V64.5366Z" fill="black"/>
<path d="M18.439 64.5366H15.3658V67.6098H18.439V64.5366Z" fill="black"/>
<path d="M24.5854 64.5366H21.5122V67.6098H24.5854V64.5366Z" fill="black"/>
<path d="M30.7317 64.5366H27.6586V67.6098H30.7317V64.5366Z" fill="black"/>
<path d="M33.8049 64.5366H30.7317V67.6098H33.8049V64.5366Z" fill="black"/>
<path d="M36.8781 64.5366H33.8049V67.6098H36.8781V64.5366Z" fill="black"/>
<path d="M39.9512 64.5366H36.8781V67.6098H39.9512V64.5366Z" fill="black"/>
<path d="M43.0243 64.5366H39.9512V67.6098H43.0243V64.5366Z" fill="black"/>
<path d="M52.2439 64.5366H49.1708V67.6098H52.2439V64.5366Z" fill="black"/>
<path d="M61.4634 64.5366H58.3903V67.6098H61.4634V64.5366Z" fill="black"/>
<path d="M64.5365 64.5366H61.4634V67.6098H64.5365V64.5366Z" fill="black"/>
<path d="M67.6098 64.5366H64.5366V67.6098H67.6098V64.5366Z" fill="black"/>
<path d="M76.8293 64.5366H73.7561V67.6098H76.8293V64.5366Z" fill="black"/>
<path d="M98.3415 64.5366H95.2683V67.6098H98.3415V64.5366Z" fill="black"/>
<path d="M104.488 64.5366H101.415V67.6098H104.488V64.5366Z" fill="black"/>
<path d="M107.561 64.5366H104.488V67.6098H107.561V64.5366Z" fill="black"/>
<path d="M116.78 64.5366H113.707V67.6098H116.78V64.5366Z" fill="black"/>
<path d="M18.439 67.6098H15.3658V70.6829H18.439V67.6098Z" fill="black"/>
<path d="M24.5854 67.6098H21.5122V70.6829H24.5854V67.6098Z" fill="black"/>
<path d="M27.6586 67.6098H24.5854V70.6829H27.6586V67.6098Z" fill="black"/>
<path d="M33.8049 67.6098H30.7317V70.6829H33.8049V67.6098Z" fill="black"/>
<path d="M43.0243 67.6098H39.9512V70.6829H43.0243V67.6098Z" fill="black"/>
<path d="M46.0976 67.6098H43.0244V70.6829H46.0976V67.6098Z" fill="black"/>
<path d="M61.4634 67.6098H58.3903V70.6829H61.4634V67.6098Z" fill="black"/>
<path d="M70.6829 67.6098H67.6097V70.6829H70.6829V67.6098Z" fill="black"/>
<path d="M73.7561 67.6098H70.683V70.6829H73.7561V67.6098Z" fill="black"/>
<path d="M79.9025 67.6098H76.8293V70.6829H79.9025V67.6098Z" fill="black"/>
<path d="M89.122 67.6098H86.0488V70.6829H89.122V67.6098Z" fill="black"/>
<path d="M92.1951 67.6098H89.1219V70.6829H92.1951V67.6098Z" fill="black"/>
<path d="M95.2684 67.6098H92.1952V70.6829H95.2684V67.6098Z" fill="black"/>
<path d="M98.3415 67.6098H95.2683V70.6829H98.3415V67.6098Z" fill="black"/>
<path d="M104.488 67.6098H101.415V70.6829H104.488V67.6098Z" fill="black"/>
<path d="M107.561 67.6098H104.488V70.6829H107.561V67.6098Z" fill="black"/>
<path d="M110.634 67.6098H107.561V70.6829H110.634V67.6098Z" fill="black"/>
<path d="M119.854 67.6098H116.781V70.6829H119.854V67.6098Z" fill="black"/>
<path d="M15.3659 70.6829H12.2927V73.7561H15.3659V70.6829Z" fill="black"/>
<path d="M18.439 70.6829H15.3658V73.7561H18.439V70.6829Z" fill="black"/>
<path d="M21.5123 70.6829H18.4391V73.7561H21.5123V70.6829Z" fill="black"/>
<path d="M30.7317 70.6829H27.6586V73.7561H30.7317V70.6829Z" fill="black"/>
<path d="M36.8781 70.6829H33.8049V73.7561H36.8781V70.6829Z" fill="black"/>
<path d="M46.0976 70.6829H43.0244V73.7561H46.0976V70.6829Z" fill="black"/>
<path d="M67.6098 70.6829H64.5366V73.7561H67.6098V70.6829Z" fill="black"/>
<path d="M70.6829 70.6829H67.6097V73.7561H70.6829V70.6829Z" fill="black"/>
<path d="M79.9025 70.6829H76.8293V73.7561H79.9025V70.6829Z" fill="black"/>
<path d="M86.0488 70.6829H82.9756V73.7561H86.0488V70.6829Z" fill="black"/>
<path d="M89.122 70.6829H86.0488V73.7561H89.122V70.6829Z" fill="black"/>
<path d="M95.2684 70.6829H92.1952V73.7561H95.2684V70.6829Z" fill="black"/>
<path d="M110.634 70.6829H107.561V73.7561H110.634V70.6829Z" fill="black"/>
<path d="M116.78 70.6829H113.707V73.7561H116.78V70.6829Z" fill="black"/>
<path d="M9.21953 73.7561H6.14636V76.8293H9.21953V73.7561Z" fill="black"/>
<path d="M12.2927 73.7561H9.21948V76.8293H12.2927V73.7561Z" fill="black"/>
<path d="M15.3659 73.7561H12.2927V76.8293H15.3659V73.7561Z" fill="black"/>
<path d="M21.5123 73.7561H18.4391V76.8293H21.5123V73.7561Z" fill="black"/>
<path d="M27.6586 73.7561H24.5854V76.8293H27.6586V73.7561Z" fill="black"/>
<path d="M33.8049 73.7561H30.7317V76.8293H33.8049V73.7561Z" fill="black"/>
<path d="M36.8781 73.7561H33.8049V76.8293H36.8781V73.7561Z" fill="black"/>
<path d="M58.3903 73.7561H55.3171V76.8293H58.3903V73.7561Z" fill="black"/>
<path d="M61.4634 73.7561H58.3903V76.8293H61.4634V73.7561Z" fill="black"/>
<path d="M73.7561 73.7561H70.683V76.8293H73.7561V73.7561Z" fill="black"/>
<path d="M76.8293 73.7561H73.7561V76.8293H76.8293V73.7561Z" fill="black"/>
<path d="M79.9025 73.7561H76.8293V76.8293H79.9025V73.7561Z" fill="black"/>
<path d="M82.9756 73.7561H79.9025V76.8293H82.9756V73.7561Z" fill="black"/>
<path d="M95.2684 73.7561H92.1952V76.8293H95.2684V73.7561Z" fill="black"/>
<path d="M98.3415 73.7561H95.2683V76.8293H98.3415V73.7561Z" fill="black"/>
<path d="M101.415 73.7561H98.3416V76.8293H101.415V73.7561Z" fill="black"/>
<path d="M104.488 73.7561H101.415V76.8293H104.488V73.7561Z" fill="black"/>
<path d="M116.78 73.7561H113.707V76.8293H116.78V73.7561Z" fill="black"/>
<path d="M21.5123 76.8293H18.4391V79.9024H21.5123V76.8293Z" fill="black"/>
<path d="M24.5854 76.8293H21.5122V79.9024H24.5854V76.8293Z" fill="black"/>
<path d="M30.7317 76.8293H27.6586V79.9024H30.7317V76.8293Z" fill="black"/>
<path d="M43.0243 76.8293H39.9512V79.9024H43.0243V76.8293Z" fill="black"/>
<path d="M46.0976 76.8293H43.0244V79.9024H46.0976V76.8293Z" fill="black"/>
<path d="M49.1707 76.8293H46.0975V79.9024H49.1707V76.8293Z" fill="black"/>
<path d="M58.3903 76.8293H55.3171V79.9024H58.3903V76.8293Z" fill="black"/>
<path d="M64.5365 76.8293H61.4634V79.9024H64.5365V76.8293Z" fill="black"/>
<path d="M70.6829 76.8293H67.6097V79.9024H70.6829V76.8293Z" fill="black"/>
<path d="M73.7561 76.8293H70.683V79.9024H73.7561V76.8293Z" fill="black"/>
<path d="M76.8293 76.8293H73.7561V79.9024H76.8293V76.8293Z" fill="black"/>
<path d="M79.9025 76.8293H76.8293V79.9024H79.9025V76.8293Z" fill="black"/>
<path d="M86.0488 76.8293H82.9756V79.9024H86.0488V76.8293Z" fill="black"/>
<path d="M92.1951 76.8293H89.1219V79.9024H92.1951V76.8293Z" fill="black"/>
<path d="M107.561 76.8293H104.488V79.9024H107.561V76.8293Z" fill="black"/>
<path d="M110.634 76.8293H107.561V79.9024H110.634V76.8293Z" fill="black"/>
<path d="M113.707 76.8293H110.634V79.9024H113.707V76.8293Z" fill="black"/>
<path d="M9.21953 79.9024H6.14636V82.9756H9.21953V79.9024Z" fill="black"/>
<path d="M12.2927 79.9024H9.21948V82.9756H12.2927V79.9024Z" fill="black"/>
<path d="M18.439 79.9024H15.3658V82.9756H18.439V79.9024Z" fill="black"/>
<path d="M27.6586 79.9024H24.5854V82.9756H27.6586V79.9024Z" fill="black"/>
<path d="M36.8781 79.9024H33.8049V82.9756H36.8781V79.9024Z" fill="black"/>
<path d="M43.0243 79.9024H39.9512V82.9756H43.0243V79.9024Z" fill="black"/>
<path d="M52.2439 79.9024H49.1708V82.9756H52.2439V79.9024Z" fill="black"/>
<path d="M64.5365 79.9024H61.4634V82.9756H64.5365V79.9024Z" fill="black"/>
<path d="M67.6098 79.9024H64.5366V82.9756H67.6098V79.9024Z" fill="black"/>
<path d="M70.6829 79.9024H67.6097V82.9756H70.6829V79.9024Z" fill="black"/>
<path d="M73.7561 79.9024H70.683V82.9756H73.7561V79.9024Z" fill="black"/>
<path d="M76.8293 79.9024H73.7561V82.9756H76.8293V79.9024Z" fill="black"/>
<path d="M82.9756 79.9024H79.9025V82.9756H82.9756V79.9024Z" fill="black"/>
<path d="M86.0488 79.9024H82.9756V82.9756H86.0488V79.9024Z" fill="black"/>
<path d="M92.1951 79.9024H89.1219V82.9756H92.1951V79.9024Z" fill="black"/>
<path d="M98.3415 79.9024H95.2683V82.9756H98.3415V79.9024Z" fill="black"/>
<path d="M101.415 79.9024H98.3416V82.9756H101.415V79.9024Z" fill="black"/>
<path d="M107.561 79.9024H104.488V82.9756H107.561V79.9024Z" fill="black"/>
<path d="M113.707 79.9024H110.634V82.9756H113.707V79.9024Z" fill="black"/>
<path d="M119.854 79.9024H116.781V82.9756H119.854V79.9024Z" fill="black"/>
<path d="M15.3659 82.9756H12.2927V86.0488H15.3659V82.9756Z" fill="black"/>
<path d="M21.5123 82.9756H18.4391V86.0488H21.5123V82.9756Z" fill="black"/>
<path d="M24.5854 82.9756H21.5122V86.0488H24.5854V82.9756Z" fill="black"/>
<path d="M39.9512 82.9756H36.8781V86.0488H39.9512V82.9756Z" fill="black"/>
<path d="M43.0243 82.9756H39.9512V86.0488H43.0243V82.9756Z" fill="black"/>
<path d="M46.0976 82.9756H43.0244V86.0488H46.0976V82.9756Z" fill="black"/>
<path d="M58.3903 82.9756H55.3171V86.0488H58.3903V82.9756Z" fill="black"/>
<path d="M64.5365 82.9756H61.4634V86.0488H64.5365V82.9756Z" fill="black"/>
<path d="M70.6829 82.9756H67.6097V86.0488H70.6829V82.9756Z" fill="black"/>
<path d="M73.7561 82.9756H70.683V86.0488H73.7561V82.9756Z" fill="black"/>
<path d="M79.9025 82.9756H76.8293V86.0488H79.9025V82.9756Z" fill="black"/>
<path d="M82.9756 82.9756H79.9025V86.0488H82.9756V82.9756Z" fill="black"/>
<path d="M89.122 82.9756H86.0488V86.0488H89.122V82.9756Z" fill="black"/>
<path d="M95.2684 82.9756H92.1952V86.0488H95.2684V82.9756Z" fill="black"/>
<path d="M101.415 82.9756H98.3416V86.0488H101.415V82.9756Z" fill="black"/>
<path d="M107.561 82.9756H104.488V86.0488H107.561V82.9756Z" fill="black"/>
<path d="M110.634 82.9756H107.561V86.0488H110.634V82.9756Z" fill="black"/>
<path d="M116.78 82.9756H113.707V86.0488H116.78V82.9756Z" fill="black"/>
<path d="M119.854 82.9756H116.781V86.0488H119.854V82.9756Z" fill="black"/>
<path d="M12.2927 86.0488H9.21948V89.1219H12.2927V86.0488Z" fill="black"/>
<path d="M18.439 86.0488H15.3658V89.1219H18.439V86.0488Z" fill="black"/>
<path d="M21.5123 86.0488H18.4391V89.1219H21.5123V86.0488Z" fill="black"/>
<path d="M24.5854 86.0488H21.5122V89.1219H24.5854V86.0488Z" fill="black"/>
<path d="M27.6586 86.0488H24.5854V89.1219H27.6586V86.0488Z" fill="black"/>
<path d="M36.8781 86.0488H33.8049V89.1219H36.8781V86.0488Z" fill="black"/>
<path d="M39.9512 86.0488H36.8781V89.1219H39.9512V86.0488Z" fill="black"/>
<path d="M46.0976 86.0488H43.0244V89.1219H46.0976V86.0488Z" fill="black"/>
<path d="M55.3171 86.0488H52.2439V89.1219H55.3171V86.0488Z" fill="black"/>
<path d="M58.3903 86.0488H55.3171V89.1219H58.3903V86.0488Z" fill="black"/>
<path d="M64.5365 86.0488H61.4634V89.1219H64.5365V86.0488Z" fill="black"/>
<path d="M67.6098 86.0488H64.5366V89.1219H67.6098V86.0488Z" fill="black"/>
<path d="M70.6829 86.0488H67.6097V89.1219H70.6829V86.0488Z" fill="black"/>
<path d="M73.7561 86.0488H70.683V89.1219H73.7561V86.0488Z" fill="black"/>
<path d="M86.0488 86.0488H82.9756V89.1219H86.0488V86.0488Z" fill="black"/>
<path d="M101.415 86.0488H98.3416V89.1219H101.415V86.0488Z" fill="black"/>
<path d="M110.634 86.0488H107.561V89.1219H110.634V86.0488Z" fill="black"/>
<path d="M113.707 86.0488H110.634V89.1219H113.707V86.0488Z" fill="black"/>
<path d="M116.78 86.0488H113.707V89.1219H116.78V86.0488Z" fill="black"/>
<path d="M9.21953 89.1219H6.14636V92.1951H9.21953V89.1219Z" fill="black"/>
<path d="M15.3659 89.1219H12.2927V92.1951H15.3659V89.1219Z" fill="black"/>
<path d="M18.439 89.1219H15.3658V92.1951H18.439V89.1219Z" fill="black"/>
<path d="M21.5123 89.1219H18.4391V92.1951H21.5123V89.1219Z" fill="black"/>
<path d="M24.5854 89.1219H21.5122V92.1951H24.5854V89.1219Z" fill="black"/>
<path d="M30.7317 89.1219H27.6586V92.1951H30.7317V89.1219Z" fill="black"/>
<path d="M33.8049 89.1219H30.7317V92.1951H33.8049V89.1219Z" fill="black"/>
<path d="M36.8781 89.1219H33.8049V92.1951H36.8781V89.1219Z" fill="black"/>
<path d="M49.1707 89.1219H46.0975V92.1951H49.1707V89.1219Z" fill="black"/>
<path d="M58.3903 89.1219H55.3171V92.1951H58.3903V89.1219Z" fill="black"/>
<path d="M73.7561 89.1219H70.683V92.1951H73.7561V89.1219Z" fill="black"/>
<path d="M82.9756 89.1219H79.9025V92.1951H82.9756V89.1219Z" fill="black"/>
<path d="M92.1951 89.1219H89.1219V92.1951H92.1951V89.1219Z" fill="black"/>
<path d="M95.2684 89.1219H92.1952V92.1951H95.2684V89.1219Z" fill="black"/>
<path d="M98.3415 89.1219H95.2683V92.1951H98.3415V89.1219Z" fill="black"/>
<path d="M101.415 89.1219H98.3416V92.1951H101.415V89.1219Z" fill="black"/>
<path d="M107.561 89.1219H104.488V92.1951H107.561V89.1219Z" fill="black"/>
<path d="M110.634 89.1219H107.561V92.1951H110.634V89.1219Z" fill="black"/>
<path d="M116.78 89.1219H113.707V92.1951H116.78V89.1219Z" fill="black"/>
<path d="M119.854 89.1219H116.781V92.1951H119.854V89.1219Z" fill="black"/>
<path d="M18.439 92.1951H15.3658V95.2683H18.439V92.1951Z" fill="black"/>
<path d="M21.5123 92.1951H18.4391V95.2683H21.5123V92.1951Z" fill="black"/>
<path d="M27.6586 92.1951H24.5854V95.2683H27.6586V92.1951Z" fill="black"/>
<path d="M30.7317 92.1951H27.6586V95.2683H30.7317V92.1951Z" fill="black"/>
<path d="M33.8049 92.1951H30.7317V95.2683H33.8049V92.1951Z" fill="black"/>
<path d="M39.9512 92.1951H36.8781V95.2683H39.9512V92.1951Z" fill="black"/>
<path d="M55.3171 92.1951H52.2439V95.2683H55.3171V92.1951Z" fill="black"/>
<path d="M58.3903 92.1951H55.3171V95.2683H58.3903V92.1951Z" fill="black"/>
<path d="M73.7561 92.1951H70.683V95.2683H73.7561V92.1951Z" fill="black"/>
<path d="M76.8293 92.1951H73.7561V95.2683H76.8293V92.1951Z" fill="black"/>
<path d="M79.9025 92.1951H76.8293V95.2683H79.9025V92.1951Z" fill="black"/>
<path d="M86.0488 92.1951H82.9756V95.2683H86.0488V92.1951Z" fill="black"/>
<path d="M92.1951 92.1951H89.1219V95.2683H92.1951V92.1951Z" fill="black"/>
<path d="M95.2684 92.1951H92.1952V95.2683H95.2684V92.1951Z" fill="black"/>
<path d="M98.3415 92.1951H95.2683V95.2683H98.3415V92.1951Z" fill="black"/>
<path d="M101.415 92.1951H98.3416V95.2683H101.415V92.1951Z" fill="black"/>
<path d="M104.488 92.1951H101.415V95.2683H104.488V92.1951Z" fill="black"/>
<path d="M107.561 92.1951H104.488V95.2683H107.561V92.1951Z" fill="black"/>
<path d="M110.634 92.1951H107.561V95.2683H110.634V92.1951Z" fill="black"/>
<path d="M113.707 92.1951H110.634V95.2683H113.707V92.1951Z" fill="black"/>
<path d="M33.8049 95.2683H30.7317V98.3415H33.8049V95.2683Z" fill="black"/>
<path d="M39.9512 95.2683H36.8781V98.3415H39.9512V95.2683Z" fill="black"/>
<path d="M49.1707 95.2683H46.0975V98.3415H49.1707V95.2683Z" fill="black"/>
<path d="M55.3171 95.2683H52.2439V98.3415H55.3171V95.2683Z" fill="black"/>
<path d="M58.3903 95.2683H55.3171V98.3415H58.3903V95.2683Z" fill="black"/>
<path d="M61.4634 95.2683H58.3903V98.3415H61.4634V95.2683Z" fill="black"/>
<path d="M64.5365 95.2683H61.4634V98.3415H64.5365V95.2683Z" fill="black"/>
<path d="M76.8293 95.2683H73.7561V98.3415H76.8293V95.2683Z" fill="black"/>
<path d="M79.9025 95.2683H76.8293V98.3415H79.9025V95.2683Z" fill="black"/>
<path d="M82.9756 95.2683H79.9025V98.3415H82.9756V95.2683Z" fill="black"/>
<path d="M86.0488 95.2683H82.9756V98.3415H86.0488V95.2683Z" fill="black"/>
<path d="M89.122 95.2683H86.0488V98.3415H89.122V95.2683Z" fill="black"/>
<path d="M92.1951 95.2683H89.1219V98.3415H92.1951V95.2683Z" fill="black"/>
<path d="M95.2684 95.2683H92.1952V98.3415H95.2684V95.2683Z" fill="black"/>
<path d="M107.561 95.2683H104.488V98.3415H107.561V95.2683Z" fill="black"/>
<path d="M113.707 95.2683H110.634V98.3415H113.707V95.2683Z" fill="black"/>
<path d="M116.78 95.2683H113.707V98.3415H116.78V95.2683Z" fill="black"/>
<path d="M119.854 95.2683H116.781V98.3415H119.854V95.2683Z" fill="black"/>
<path d="M33.8049 98.3415H30.7317V101.415H33.8049V98.3415Z" fill="black"/>
<path d="M43.0243 98.3415H39.9512V101.415H43.0243V98.3415Z" fill="black"/>
<path d="M46.0976 98.3415H43.0244V101.415H46.0976V98.3415Z" fill="black"/>
<path d="M49.1707 98.3415H46.0975V101.415H49.1707V98.3415Z" fill="black"/>
<path d="M52.2439 98.3415H49.1708V101.415H52.2439V98.3415Z" fill="black"/>
<path d="M55.3171 98.3415H52.2439V101.415H55.3171V98.3415Z" fill="black"/>
<path d="M58.3903 98.3415H55.3171V101.415H58.3903V98.3415Z" fill="black"/>
<path d="M61.4634 98.3415H58.3903V101.415H61.4634V98.3415Z" fill="black"/>
<path d="M70.6829 98.3415H67.6097V101.415H70.6829V98.3415Z" fill="black"/>
<path d="M73.7561 98.3415H70.683V101.415H73.7561V98.3415Z" fill="black"/>
<path d="M82.9756 98.3415H79.9025V101.415H82.9756V98.3415Z" fill="black"/>
<path d="M89.122 98.3415H86.0488V101.415H89.122V98.3415Z" fill="black"/>
<path d="M95.2684 98.3415H92.1952V101.415H95.2684V98.3415Z" fill="black"/>
<path d="M101.415 98.3415H98.3416V101.415H101.415V98.3415Z" fill="black"/>
<path d="M107.561 98.3415H104.488V101.415H107.561V98.3415Z" fill="black"/>
<path d="M113.707 98.3415H110.634V101.415H113.707V98.3415Z" fill="black"/>
<path d="M119.854 98.3415H116.781V101.415H119.854V98.3415Z" fill="black"/>
<path d="M33.8049 101.415H30.7317V104.488H33.8049V101.415Z" fill="black"/>
<path d="M36.8781 101.415H33.8049V104.488H36.8781V101.415Z" fill="black"/>
<path d="M39.9512 101.415H36.8781V104.488H39.9512V101.415Z" fill="black"/>
<path d="M46.0976 101.415H43.0244V104.488H46.0976V101.415Z" fill="black"/>
<path d="M49.1707 101.415H46.0975V104.488H49.1707V101.415Z" fill="black"/>
<path d="M67.6098 101.415H64.5366V104.488H67.6098V101.415Z" fill="black"/>
<path d="M76.8293 101.415H73.7561V104.488H76.8293V101.415Z" fill="black"/>
<path d="M82.9756 101.415H79.9025V104.488H82.9756V101.415Z" fill="black"/>
<path d="M92.1951 101.415H89.1219V104.488H92.1951V101.415Z" fill="black"/>
<path d="M95.2684 101.415H92.1952V104.488H95.2684V101.415Z" fill="black"/>
<path d="M107.561 101.415H104.488V104.488H107.561V101.415Z" fill="black"/>
<path d="M116.78 101.415H113.707V104.488H116.78V101.415Z" fill="black"/>
<path d="M36.8781 104.488H33.8049V107.561H36.8781V104.488Z" fill="black"/>
<path d="M39.9512 104.488H36.8781V107.561H39.9512V104.488Z" fill="black"/>
<path d="M43.0243 104.488H39.9512V107.561H43.0243V104.488Z" fill="black"/>
<path d="M49.1707 104.488H46.0975V107.561H49.1707V104.488Z" fill="black"/>
<path d="M52.2439 104.488H49.1708V107.561H52.2439V104.488Z" fill="black"/>
<path d="M64.5365 104.488H61.4634V107.561H64.5365V104.488Z" fill="black"/>
<path d="M76.8293 104.488H73.7561V107.561H76.8293V104.488Z" fill="black"/>
<path d="M79.9025 104.488H76.8293V107.561H79.9025V104.488Z" fill="black"/>
<path d="M82.9756 104.488H79.9025V107.561H82.9756V104.488Z" fill="black"/>
<path d="M95.2684 104.488H92.1952V107.561H95.2684V104.488Z" fill="black"/>
<path d="M98.3415 104.488H95.2683V107.561H98.3415V104.488Z" fill="black"/>
<path d="M101.415 104.488H98.3416V107.561H101.415V104.488Z" fill="black"/>
<path d="M104.488 104.488H101.415V107.561H104.488V104.488Z" fill="black"/>
<path d="M107.561 104.488H104.488V107.561H107.561V104.488Z" fill="black"/>
<path d="M110.634 104.488H107.561V107.561H110.634V104.488Z" fill="black"/>
<path d="M33.8049 107.561H30.7317V110.634H33.8049V107.561Z" fill="black"/>
<path d="M36.8781 107.561H33.8049V110.634H36.8781V107.561Z" fill="black"/>
<path d="M43.0243 107.561H39.9512V110.634H43.0243V107.561Z" fill="black"/>
<path d="M46.0976 107.561H43.0244V110.634H46.0976V107.561Z" fill="black"/>
<path d="M52.2439 107.561H49.1708V110.634H52.2439V107.561Z" fill="black"/>
<path d="M55.3171 107.561H52.2439V110.634H55.3171V107.561Z" fill="black"/>
<path d="M61.4634 107.561H58.3903V110.634H61.4634V107.561Z" fill="black"/>
<path d="M64.5365 107.561H61.4634V110.634H64.5365V107.561Z" fill="black"/>
<path d="M70.6829 107.561H67.6097V110.634H70.6829V107.561Z" fill="black"/>
<path d="M73.7561 107.561H70.683V110.634H73.7561V107.561Z" fill="black"/>
<path d="M76.8293 107.561H73.7561V110.634H76.8293V107.561Z" fill="black"/>
<path d="M79.9025 107.561H76.8293V110.634H79.9025V107.561Z" fill="black"/>
<path d="M82.9756 107.561H79.9025V110.634H82.9756V107.561Z" fill="black"/>
<path d="M89.122 107.561H86.0488V110.634H89.122V107.561Z" fill="black"/>
<path d="M92.1951 107.561H89.1219V110.634H92.1951V107.561Z" fill="black"/>
<path d="M95.2684 107.561H92.1952V110.634H95.2684V107.561Z" fill="black"/>
<path d="M101.415 107.561H98.3416V110.634H101.415V107.561Z" fill="black"/>
<path d="M107.561 107.561H104.488V110.634H107.561V107.561Z" fill="black"/>
<path d="M110.634 107.561H107.561V110.634H110.634V107.561Z" fill="black"/>
<path d="M119.854 107.561H116.781V110.634H119.854V107.561Z" fill="black"/>
<path d="M33.8049 110.634H30.7317V113.707H33.8049V110.634Z" fill="black"/>
<path d="M39.9512 110.634H36.8781V113.707H39.9512V110.634Z" fill="black"/>
<path d="M46.0976 110.634H43.0244V113.707H46.0976V110.634Z" fill="black"/>
<path d="M58.3903 110.634H55.3171V113.707H58.3903V110.634Z" fill="black"/>
<path d="M61.4634 110.634H58.3903V113.707H61.4634V110.634Z" fill="black"/>
<path d="M67.6098 110.634H64.5366V113.707H67.6098V110.634Z" fill="black"/>
<path d="M70.6829 110.634H67.6097V113.707H70.6829V110.634Z" fill="black"/>
<path d="M76.8293 110.634H73.7561V113.707H76.8293V110.634Z" fill="black"/>
<path d="M79.9025 110.634H76.8293V113.707H79.9025V110.634Z" fill="black"/>
<path d="M89.122 110.634H86.0488V113.707H89.122V110.634Z" fill="black"/>
<path d="M92.1951 110.634H89.1219V113.707H92.1951V110.634Z" fill="black"/>
<path d="M95.2684 110.634H92.1952V113.707H95.2684V110.634Z" fill="black"/>
<path d="M98.3415 110.634H95.2683V113.707H98.3415V110.634Z" fill="black"/>
<path d="M101.415 110.634H98.3416V113.707H101.415V110.634Z" fill="black"/>
<path d="M107.561 110.634H104.488V113.707H107.561V110.634Z" fill="black"/>
<path d="M110.634 110.634H107.561V113.707H110.634V110.634Z" fill="black"/>
<path d="M36.8781 113.707H33.8049V116.78H36.8781V113.707Z" fill="black"/>
<path d="M46.0976 113.707H43.0244V116.78H46.0976V113.707Z" fill="black"/>
<path d="M58.3903 113.707H55.3171V116.78H58.3903V113.707Z" fill="black"/>
<path d="M64.5365 113.707H61.4634V116.78H64.5365V113.707Z" fill="black"/>
<path d="M70.6829 113.707H67.6097V116.78H70.6829V113.707Z" fill="black"/>
<path d="M76.8293 113.707H73.7561V116.78H76.8293V113.707Z" fill="black"/>
<path d="M79.9025 113.707H76.8293V116.78H79.9025V113.707Z" fill="black"/>
<path d="M86.0488 113.707H82.9756V116.78H86.0488V113.707Z" fill="black"/>
<path d="M92.1951 113.707H89.1219V116.78H92.1951V113.707Z" fill="black"/>
<path d="M98.3415 113.707H95.2683V116.78H98.3415V113.707Z" fill="black"/>
<path d="M104.488 113.707H101.415V116.78H104.488V113.707Z" fill="black"/>
<path d="M107.561 113.707H104.488V116.78H107.561V113.707Z" fill="black"/>
<path d="M113.707 113.707H110.634V116.78H113.707V113.707Z" fill="black"/>
<path d="M33.8049 116.78H30.7317V119.854H33.8049V116.78Z" fill="black"/>
<path d="M43.0243 116.78H39.9512V119.854H43.0243V116.78Z" fill="black"/>
<path d="M52.2439 116.78H49.1708V119.854H52.2439V116.78Z" fill="black"/>
<path d="M55.3171 116.78H52.2439V119.854H55.3171V116.78Z" fill="black"/>
<path d="M58.3903 116.78H55.3171V119.854H58.3903V116.78Z" fill="black"/>
<path d="M61.4634 116.78H58.3903V119.854H61.4634V116.78Z" fill="black"/>
<path d="M64.5365 116.78H61.4634V119.854H64.5365V116.78Z" fill="black"/>
<path d="M67.6098 116.78H64.5366V119.854H67.6098V116.78Z" fill="black"/>
<path d="M82.9756 116.78H79.9025V119.854H82.9756V116.78Z" fill="black"/>
<path d="M86.0488 116.78H82.9756V119.854H86.0488V116.78Z" fill="black"/>
<path d="M92.1951 116.78H89.1219V119.854H92.1951V116.78Z" fill="black"/>
<path d="M101.415 116.78H98.3416V119.854H101.415V116.78Z" fill="black"/>
<path d="M107.561 116.78H104.488V119.854H107.561V116.78Z" fill="black"/>
<path d="M113.707 116.78H110.634V119.854H113.707V116.78Z" fill="black"/>
<path d="M116.78 116.78H113.707V119.854H116.78V116.78Z" fill="black"/>
<path d="M119.854 116.78H116.781V119.854H119.854V116.78Z" fill="black"/>
<path d="M24.4317 6.14635H9.37319H6.14636V9.37318V24.4317V27.6585H9.37319H24.4317H27.6586V24.4317V9.37318V6.14635H24.4317ZM24.4317 24.4317H9.37319V9.37318H24.4317V24.4317Z" fill="black"/>
<path d="M116.627 6.14635H101.568H98.3416V9.37318V24.4317V27.6585H101.568H116.627H119.854V24.4317V9.37318V6.14635H116.627ZM116.627 24.4317H101.568V9.37318H116.627V24.4317Z" fill="black"/>
<path d="M24.4317 98.3415H9.37319H6.14636V101.568V116.627V119.854H9.37319H24.4317H27.6586V116.627V101.568V98.3415H24.4317ZM24.4317 116.627H9.37319V101.568H24.4317V116.627Z" fill="black"/>
<path d="M21.5122 12.2927H12.2927V21.5122H21.5122V12.2927Z" fill="black"/>
<path d="M113.707 12.2927H104.488V21.5122H113.707V12.2927Z" fill="black"/>
<path d="M21.5122 104.488H12.2927V113.707H21.5122V104.488Z" fill="black"/>
</svg>
